<?xml version="1.0" encoding="UTF-8" standalone="no"?>
<svg xmlns="http://www.w3.org/2000/svg"
     xmlns:xlink="http://www.w3.org/1999/xlink"
     width="576pt" height="432pt" viewBox="0 0 576 432">
<title>gl2ps_renderer figure</title>
<desc>
Creator: GL2PS 1.4.0, (C) 1999-2017 C. Geuzaine
For: Octave
CreationDate: Sat Mar 14 22:22:01 2020
</desc>
<defs>
</defs>
<polygon fill="#ffffff" points="0,0 576,0 576,432 0,432"/>
<g>
<polygon fill="#ffffff" points="0,432 576,432 576,0 0,0" shape-rendering="crispEdges"/>
<clipPath id="cp00576432">
  <polygon points="0,432 576,432 576,0 0,0"/>
</clipPath>
<g clip-path="url(#cp00576432)">
<polygon fill="#ffffff" shape-rendering="crispEdges" points="74.88,384.48 521.28,384.48 74.88,32.4"/>
<polygon fill="#ffffff" shape-rendering="crispEdges" points="521.28,384.48 521.28,32.4 74.88,32.4"/>
<polyline fill="none" stroke="#262626" stroke-width="0.5" stroke-linecap="butt" stroke-linejoin="miter" points="74.88,384.48 74.88,380.015"/>
<polyline fill="none" stroke="#262626" stroke-width="0.5" stroke-linecap="butt" stroke-linejoin="miter" points="74.88,32.4 74.88,36.865"/>
<polyline fill="none" stroke="#262626" stroke-width="0.5" stroke-linecap="butt" stroke-linejoin="miter" points="186.48,384.48 186.48,380.015"/>
<polyline fill="none" stroke="#262626" stroke-width="0.5" stroke-linecap="butt" stroke-linejoin="miter" points="186.48,32.4 186.48,36.865"/>
<polyline fill="none" stroke="#262626" stroke-width="0.5" stroke-linecap="butt" stroke-linejoin="miter" points="298.08,384.48 298.08,380.015"/>
<polyline fill="none" stroke="#262626" stroke-width="0.5" stroke-linecap="butt" stroke-linejoin="miter" points="298.08,32.4 298.08,36.865"/>
<polyline fill="none" stroke="#262626" stroke-width="0.5" stroke-linecap="butt" stroke-linejoin="miter" points="409.68,384.48 409.68,380.015"/>
<polyline fill="none" stroke="#262626" stroke-width="0.5" stroke-linecap="butt" stroke-linejoin="miter" points="409.68,32.4 409.68,36.865"/>
<polyline fill="none" stroke="#262626" stroke-width="0.5" stroke-linecap="butt" stroke-linejoin="miter" points="521.28,384.48 521.28,380.015"/>
<polyline fill="none" stroke="#262626" stroke-width="0.5" stroke-linecap="butt" stroke-linejoin="miter" points="521.28,32.4 521.28,36.865"/>
<text xml:space="preserve" transform="translate(71.88,400.481) rotate(-0,3,-11)" font-family="FreeSans" font-weight="normal" font-style="normal" font-size="10"><tspan y="-1" fill="rgb(38,38,38)" x="0 ">0</tspan></text>
<text xml:space="preserve" transform="translate(180.48,400.481) rotate(-0,6,-11)" font-family="FreeSans" font-weight="normal" font-style="normal" font-size="10"><tspan y="-1" fill="rgb(38,38,38)" x="0 6 ">20</tspan></text>
<text xml:space="preserve" transform="translate(292.08,400.481) rotate(-0,6,-11)" font-family="FreeSans" font-weight="normal" font-style="normal" font-size="10"><tspan y="-1" fill="rgb(38,38,38)" x="0 6 ">40</tspan></text>
<text xml:space="preserve" transform="translate(403.68,400.481) rotate(-0,6,-11)" font-family="FreeSans" font-weight="normal" font-style="normal" font-size="10"><tspan y="-1" fill="rgb(38,38,38)" x="0 6 ">60</tspan></text>
<text xml:space="preserve" transform="translate(515.28,400.481) rotate(-0,6,-11)" font-family="FreeSans" font-weight="normal" font-style="normal" font-size="10"><tspan y="-1" fill="rgb(38,38,38)" x="0 6 ">80</tspan></text>
<polyline fill="none" stroke="#262626" stroke-width="0.5" stroke-linecap="butt" stroke-linejoin="miter" points="74.88,384.48 79.348,384.48"/>
<polyline fill="none" stroke="#262626" stroke-width="0.5" stroke-linecap="butt" stroke-linejoin="miter" points="521.28,384.48 516.812,384.48"/>
<polyline fill="none" stroke="#262626" stroke-width="0.5" stroke-linecap="butt" stroke-linejoin="miter" points="74.88,325.8 79.348,325.8"/>
<polyline fill="none" stroke="#262626" stroke-width="0.5" stroke-linecap="butt" stroke-linejoin="miter" points="521.28,325.8 516.812,325.8"/>
<polyline fill="none" stroke="#262626" stroke-width="0.5" stroke-linecap="butt" stroke-linejoin="miter" points="74.88,267.12 79.348,267.12"/>
<polyline fill="none" stroke="#262626" stroke-width="0.5" stroke-linecap="butt" stroke-linejoin="miter" points="521.28,267.12 516.812,267.12"/>
<polyline fill="none" stroke="#262626" stroke-width="0.5" stroke-linecap="butt" stroke-linejoin="miter" points="74.88,208.44 79.348,208.44"/>
<polyline fill="none" stroke="#262626" stroke-width="0.5" stroke-linecap="butt" stroke-linejoin="miter" points="521.28,208.44 516.812,208.44"/>
<polyline fill="none" stroke="#262626" stroke-width="0.5" stroke-linecap="butt" stroke-linejoin="miter" points="74.88,149.76 79.348,149.76"/>
<polyline fill="none" stroke="#262626" stroke-width="0.5" stroke-linecap="butt" stroke-linejoin="miter" points="521.28,149.76 516.812,149.76"/>
<polyline fill="none" stroke="#262626" stroke-width="0.5" stroke-linecap="butt" stroke-linejoin="miter" points="74.88,91.08 79.348,91.08"/>
<polyline fill="none" stroke="#262626" stroke-width="0.5" stroke-linecap="butt" stroke-linejoin="miter" points="521.28,91.08 516.812,91.08"/>
<polyline fill="none" stroke="#262626" stroke-width="0.5" stroke-linecap="butt" stroke-linejoin="miter" points="74.88,32.4 79.348,32.4"/>
<polyline fill="none" stroke="#262626" stroke-width="0.5" stroke-linecap="butt" stroke-linejoin="miter" points="521.28,32.4 516.812,32.4"/>
<text xml:space="preserve" transform="translate(63.8755,389.98) rotate(-0,6,-5.5)" font-family="FreeSans" font-weight="normal" font-style="normal" font-size="10"><tspan y="-1" fill="rgb(38,38,38)" x="0 ">0</tspan></text>
<text xml:space="preserve" transform="translate(40.8755,331.3) rotate(-0,29,-5.5)" font-family="FreeSans" font-weight="normal" font-style="normal" font-size="10"><tspan y="-1" fill="rgb(38,38,38)" x="0 6 11 17 23 ">5e+14</tspan></text>
<text xml:space="preserve" transform="translate(40.8755,272.62) rotate(-0,29,-5.5)" font-family="FreeSans" font-weight="normal" font-style="normal" font-size="10"><tspan y="-1" fill="rgb(38,38,38)" x="0 6 11 17 23 ">1e+15</tspan></text>
<text xml:space="preserve" transform="translate(31.8755,213.94) rotate(-0,38,-5.5)" font-family="FreeSans" font-weight="normal" font-style="normal" font-size="10"><tspan y="-1" fill="rgb(38,38,38)" x="0 6 9 15 20 26 32 ">1.5e+15</tspan></text>
<text xml:space="preserve" transform="translate(40.8755,155.26) rotate(-0,29,-5.5)" font-family="FreeSans" font-weight="normal" font-style="normal" font-size="10"><tspan y="-1" fill="rgb(38,38,38)" x="0 6 11 17 23 ">2e+15</tspan></text>
<text xml:space="preserve" transform="translate(31.8755,96.58) rotate(-0,38,-5.5)" font-family="FreeSans" font-weight="normal" font-style="normal" font-size="10"><tspan y="-1" fill="rgb(38,38,38)" x="0 6 9 15 20 26 32 ">2.5e+15</tspan></text>
<text xml:space="preserve" transform="translate(40.8755,37.9) rotate(-0,29,-5.5)" font-family="FreeSans" font-weight="normal" font-style="normal" font-size="10"><tspan y="-1" fill="rgb(38,38,38)" x="0 6 11 17 23 ">3e+15</tspan></text>
<polyline fill="none" stroke="#262626" stroke-width="0.5" stroke-linecap="square" stroke-linejoin="miter" stroke-dasharray="16,0" points="74.88,384.48 521.28,384.48"/>
<polyline fill="none" stroke="#262626" stroke-width="0.5" stroke-linecap="square" stroke-linejoin="miter" stroke-dasharray="16,0" points="74.88,32.4 521.28,32.4"/>
<polyline fill="none" stroke="#262626" stroke-width="0.5" stroke-linecap="square" stroke-linejoin="miter" stroke-dasharray="16,0" points="74.88,384.48 74.88,32.4"/>
<polyline fill="none" stroke="#262626" stroke-width="0.5" stroke-linecap="square" stroke-linejoin="miter" stroke-dasharray="16,0" points="521.28,384.48 521.28,32.4"/>
<text xml:space="preserve" transform="translate(284.58,413.481) rotate(-0,13.5,-13)" font-family="FreeSans" font-weight="normal" font-style="normal" font-size="11"><tspan y="-2" fill="rgb(38,38,38)" x="0 5 8 15 20 22 ">x Axis</tspan></text>
<text xml:space="preserve" transform="translate(14.3755,208.44) rotate(-90,13.5,0)" font-family="FreeSans" font-weight="normal" font-style="normal" font-size="11"><tspan y="-2" fill="rgb(38,38,38)" x="0 5 8 15 20 22 ">y Axis</tspan></text>
<text xml:space="preserve" transform="translate(278.08,22.4) rotate(-0,20,0)" font-family="FreeSans" font-weight="bold" font-style="normal" font-size="11"><tspan y="-2" fill="rgb(0,0,0)" x="0 10 16 19 26 29 36 ">My Plot</tspan></text>
<polyline fill="none" stroke="#ff0000" stroke-width="0.5" stroke-linecap="square" stroke-linejoin="miter" points="74.88,381.48 77.88,384.48 74.88,387.48 71.88,384.48 74.88,381.48"/>
<polyline fill="none" stroke="#ff0000" stroke-width="0.5" stroke-linecap="square" stroke-linejoin="miter" points="80.46,381.48 83.46,384.48 80.46,387.48 77.46,384.48 80.46,381.48"/>
<polyline fill="none" stroke="#ff0000" stroke-width="0.5" stroke-linecap="square" stroke-linejoin="miter" points="86.04,381.48 89.04,384.48 86.04,387.48 83.04,384.48 86.04,381.48"/>
<polyline fill="none" stroke="#ff0000" stroke-width="0.5" stroke-linecap="square" stroke-linejoin="miter" points="91.62,381.48 94.62,384.48 91.62,387.48 88.62,384.48 91.62,381.48"/>
<polyline fill="none" stroke="#ff0000" stroke-width="0.5" stroke-linecap="square" stroke-linejoin="miter" points="97.2,381.48 100.2,384.48 97.2,387.48 94.2,384.48 97.2,381.48"/>
<polyline fill="none" stroke="#ff0000" stroke-width="0.5" stroke-linecap="square" stroke-linejoin="miter" points="102.78,381.48 105.78,384.48 102.78,387.48 99.78,384.48 102.78,381.48"/>
<polyline fill="none" stroke="#ff0000" stroke-width="0.5" stroke-linecap="square" stroke-linejoin="miter" points="108.36,381.48 111.36,384.48 108.36,387.48 105.36,384.48 108.36,381.48"/>
<polyline fill="none" stroke="#ff0000" stroke-width="0.5" stroke-linecap="square" stroke-linejoin="miter" points="113.94,381.48 116.94,384.48 113.94,387.48 110.94,384.48 113.94,381.48"/>
<polyline fill="none" stroke="#ff0000" stroke-width="0.5" stroke-linecap="square" stroke-linejoin="miter" points="119.52,381.48 122.52,384.48 119.52,387.48 116.52,384.48 119.52,381.48"/>
<polyline fill="none" stroke="#ff0000" stroke-width="0.5" stroke-linecap="square" stroke-linejoin="miter" points="125.1,381.48 128.1,384.48 125.1,387.48 122.1,384.48 125.1,381.48"/>
<polyline fill="none" stroke="#ff0000" stroke-width="0.5" stroke-linecap="square" stroke-linejoin="miter" points="130.68,381.48 133.68,384.48 130.68,387.48 127.68,384.48 130.68,381.48"/>
<polyline fill="none" stroke="#ff0000" stroke-width="0.5" stroke-linecap="square" stroke-linejoin="miter" points="136.26,381.48 139.26,384.48 136.26,387.48 133.26,384.48 136.26,381.48"/>
<polyline fill="none" stroke="#ff0000" stroke-width="0.5" stroke-linecap="square" stroke-linejoin="miter" points="141.84,381.479 144.84,384.479 141.84,387.479 138.84,384.479 141.84,381.479"/>
<polyline fill="none" stroke="#ff0000" stroke-width="0.5" stroke-linecap="square" stroke-linejoin="miter" points="147.42,381.479 150.42,384.479 147.42,387.479 144.42,384.479 147.42,381.479"/>
<polyline fill="none" stroke="#ff0000" stroke-width="0.5" stroke-linecap="square" stroke-linejoin="miter" points="153,381.478 156,384.478 153,387.478 150,384.478 153,381.478"/>
<polyline fill="none" stroke="#ff0000" stroke-width="0.5" stroke-linecap="square" stroke-linejoin="miter" points="158.58,381.477 161.58,384.477 158.58,387.477 155.58,384.477 158.58,381.477"/>
<polyline fill="none" stroke="#ff0000" stroke-width="0.5" stroke-linecap="square" stroke-linejoin="miter" points="164.16,381.475 167.16,384.475 164.16,387.475 161.16,384.475 164.16,381.475"/>
<polyline fill="none" stroke="#ff0000" stroke-width="0.5" stroke-linecap="square" stroke-linejoin="miter" points="169.74,381.472 172.74,384.472 169.74,387.472 166.74,384.472 169.74,381.472"/>
<polyline fill="none" stroke="#ff0000" stroke-width="0.5" stroke-linecap="square" stroke-linejoin="miter" points="175.32,381.469 178.32,384.469 175.32,387.469 172.32,384.469 175.32,381.469"/>
<polyline fill="none" stroke="#ff0000" stroke-width="0.5" stroke-linecap="square" stroke-linejoin="miter" points="180.9,381.464 183.9,384.464 180.9,387.464 177.9,384.464 180.9,381.464"/>
<polyline fill="none" stroke="#ff0000" stroke-width="0.5" stroke-linecap="square" stroke-linejoin="miter" points="186.48,381.457 189.48,384.457 186.48,387.457 183.48,384.457 186.48,381.457"/>
<polyline fill="none" stroke="#ff0000" stroke-width="0.5" stroke-linecap="square" stroke-linejoin="miter" points="192.06,381.448 195.06,384.448 192.06,387.448 189.06,384.448 192.06,381.448"/>
<polyline fill="none" stroke="#ff0000" stroke-width="0.5" stroke-linecap="square" stroke-linejoin="miter" points="197.64,381.436 200.64,384.436 197.64,387.436 194.64,384.436 197.64,381.436"/>
<polyline fill="none" stroke="#ff0000" stroke-width="0.5" stroke-linecap="square" stroke-linejoin="miter" points="203.22,381.421 206.22,384.421 203.22,387.421 200.22,384.421 203.22,381.421"/>
<polyline fill="none" stroke="#ff0000" stroke-width="0.5" stroke-linecap="square" stroke-linejoin="miter" points="208.8,381.4 211.8,384.4 208.8,387.4 205.8,384.4 208.8,381.4"/>
<polyline fill="none" stroke="#ff0000" stroke-width="0.5" stroke-linecap="square" stroke-linejoin="miter" points="214.38,381.375 217.38,384.375 214.38,387.375 211.38,384.375 214.38,381.375"/>
<polyline fill="none" stroke="#ff0000" stroke-width="0.5" stroke-linecap="square" stroke-linejoin="miter" points="219.96,381.342 222.96,384.342 219.96,387.342 216.96,384.342 219.96,381.342"/>
<polyline fill="none" stroke="#ff0000" stroke-width="0.5" stroke-linecap="square" stroke-linejoin="miter" points="225.54,381.301 228.54,384.301 225.54,387.301 222.54,384.301 225.54,381.301"/>
<polyline fill="none" stroke="#ff0000" stroke-width="0.5" stroke-linecap="square" stroke-linejoin="miter" points="231.12,381.251 234.12,384.251 231.12,387.251 228.12,384.251 231.12,381.251"/>
<polyline fill="none" stroke="#ff0000" stroke-width="0.5" stroke-linecap="square" stroke-linejoin="miter" points="236.7,381.188 239.7,384.188 236.7,387.188 233.7,384.188 236.7,381.188"/>
<polyline fill="none" stroke="#ff0000" stroke-width="0.5" stroke-linecap="square" stroke-linejoin="miter" points="242.28,381.111 245.28,384.111 242.28,387.111 239.28,384.111 242.28,381.111"/>
<polyline fill="none" stroke="#ff0000" stroke-width="0.5" stroke-linecap="square" stroke-linejoin="miter" points="247.86,381.018 250.86,384.018 247.86,387.018 244.86,384.018 247.86,381.018"/>
<polyline fill="none" stroke="#ff0000" stroke-width="0.5" stroke-linecap="square" stroke-linejoin="miter" points="253.44,380.905 256.44,383.905 253.44,386.905 250.44,383.905 253.44,380.905"/>
<polyline fill="none" stroke="#ff0000" stroke-width="0.5" stroke-linecap="square" stroke-linejoin="miter" points="259.02,380.769 262.02,383.769 259.02,386.769 256.02,383.769 259.02,380.769"/>
<polyline fill="none" stroke="#ff0000" stroke-width="0.5" stroke-linecap="square" stroke-linejoin="miter" points="264.6,380.606 267.6,383.606 264.6,386.606 261.6,383.606 264.6,380.606"/>
<polyline fill="none" stroke="#ff0000" stroke-width="0.5" stroke-linecap="square" stroke-linejoin="miter" points="270.18,380.413 273.18,383.413 270.18,386.413 267.18,383.413 270.18,380.413"/>
<polyline fill="none" stroke="#ff0000" stroke-width="0.5" stroke-linecap="square" stroke-linejoin="miter" points="275.76,380.183 278.76,383.183 275.76,386.183 272.76,383.183 275.76,380.183"/>
<polyline fill="none" stroke="#ff0000" stroke-width="0.5" stroke-linecap="square" stroke-linejoin="miter" points="281.34,379.913 284.34,382.913 281.34,385.913 278.34,382.913 281.34,379.913"/>
<polyline fill="none" stroke="#ff0000" stroke-width="0.5" stroke-linecap="square" stroke-linejoin="miter" points="286.92,379.597 289.92,382.597 286.92,385.597 283.92,382.597 286.92,379.597"/>
<polyline fill="none" stroke="#ff0000" stroke-width="0.5" stroke-linecap="square" stroke-linejoin="miter" points="292.5,379.226 295.5,382.226 292.5,385.226 289.5,382.226 292.5,379.226"/>
<polyline fill="none" stroke="#ff0000" stroke-width="0.5" stroke-linecap="square" stroke-linejoin="miter" points="298.08,378.795 301.08,381.795 298.08,384.795 295.08,381.795 298.08,378.795"/>
<polyline fill="none" stroke="#ff0000" stroke-width="0.5" stroke-linecap="square" stroke-linejoin="miter" points="303.66,378.295 306.66,381.295 303.66,384.295 300.66,381.295 303.66,378.295"/>
<polyline fill="none" stroke="#ff0000" stroke-width="0.5" stroke-linecap="square" stroke-linejoin="miter" points="309.24,377.718 312.24,380.718 309.24,383.718 306.24,380.718 309.24,377.718"/>
<polyline fill="none" stroke="#ff0000" stroke-width="0.5" stroke-linecap="square" stroke-linejoin="miter" points="314.82,377.053 317.82,380.053 314.82,383.053 311.82,380.053 314.82,377.053"/>
<polyline fill="none" stroke="#ff0000" stroke-width="0.5" stroke-linecap="square" stroke-linejoin="miter" points="320.4,376.289 323.4,379.289 320.4,382.289 317.4,379.289 320.4,376.289"/>
<polyline fill="none" stroke="#ff0000" stroke-width="0.5" stroke-linecap="square" stroke-linejoin="miter" points="325.98,375.415 328.98,378.415 325.98,381.415 322.98,378.415 325.98,375.415"/>
<polyline fill="none" stroke="#ff0000" stroke-width="0.5" stroke-linecap="square" stroke-linejoin="miter" points="331.56,374.418 334.56,377.418 331.56,380.418 328.56,377.418 331.56,374.418"/>
<polyline fill="none" stroke="#ff0000" stroke-width="0.5" stroke-linecap="square" stroke-linejoin="miter" points="337.14,373.284 340.14,376.284 337.14,379.284 334.14,376.284 337.14,373.284"/>
<polyline fill="none" stroke="#ff0000" stroke-width="0.5" stroke-linecap="square" stroke-linejoin="miter" points="342.72,371.998 345.72,374.998 342.72,377.998 339.72,374.998 342.72,371.998"/>
<polyline fill="none" stroke="#ff0000" stroke-width="0.5" stroke-linecap="square" stroke-linejoin="miter" points="348.3,370.541 351.3,373.541 348.3,376.541 345.3,373.541 348.3,370.541"/>
<polyline fill="none" stroke="#ff0000" stroke-width="0.5" stroke-linecap="square" stroke-linejoin="miter" points="353.88,368.897 356.88,371.897 353.88,374.897 350.88,371.897 353.88,368.897"/>
<polyline fill="none" stroke="#ff0000" stroke-width="0.5" stroke-linecap="square" stroke-linejoin="miter" points="359.46,367.046 362.46,370.046 359.46,373.046 356.46,370.046 359.46,367.046"/>
<polyline fill="none" stroke="#ff0000" stroke-width="0.5" stroke-linecap="square" stroke-linejoin="miter" points="365.04,364.966 368.04,367.966 365.04,370.966 362.04,367.966 365.04,364.966"/>
<polyline fill="none" stroke="#ff0000" stroke-width="0.5" stroke-linecap="square" stroke-linejoin="miter" points="370.62,362.635 373.62,365.635 370.62,368.635 367.62,365.635 370.62,362.635"/>
<polyline fill="none" stroke="#ff0000" stroke-width="0.5" stroke-linecap="square" stroke-linejoin="miter" points="376.2,360.026 379.2,363.026 376.2,366.026 373.2,363.026 376.2,360.026"/>
<polyline fill="none" stroke="#ff0000" stroke-width="0.5" stroke-linecap="square" stroke-linejoin="miter" points="381.78,357.114 384.78,360.114 381.78,363.114 378.78,360.114 381.78,357.114"/>
<polyline fill="none" stroke="#ff0000" stroke-width="0.5" stroke-linecap="square" stroke-linejoin="miter" points="387.36,353.87 390.36,356.87 387.36,359.87 384.36,356.87 387.36,353.87"/>
<polyline fill="none" stroke="#ff0000" stroke-width="0.5" stroke-linecap="square" stroke-linejoin="miter" points="392.94,350.262 395.94,353.262 392.94,356.262 389.94,353.262 392.94,350.262"/>
<polyline fill="none" stroke="#ff0000" stroke-width="0.5" stroke-linecap="square" stroke-linejoin="miter" points="398.52,346.257 401.52,349.257 398.52,352.257 395.52,349.257 398.52,346.257"/>
<polyline fill="none" stroke="#ff0000" stroke-width="0.5" stroke-linecap="square" stroke-linejoin="miter" points="404.1,341.82 407.1,344.82 404.1,347.82 401.1,344.82 404.1,341.82"/>
<polyline fill="none" stroke="#ff0000" stroke-width="0.5" stroke-linecap="square" stroke-linejoin="miter" points="409.68,336.913 412.68,339.913 409.68,342.913 406.68,339.913 409.68,336.913"/>
<polyline fill="none" stroke="#ff0000" stroke-width="0.5" stroke-linecap="square" stroke-linejoin="miter" points="415.26,331.493 418.26,334.493 415.26,337.493 412.26,334.493 415.26,331.493"/>
<polyline fill="none" stroke="#ff0000" stroke-width="0.5" stroke-linecap="square" stroke-linejoin="miter" points="420.84,325.518 423.84,328.518 420.84,331.518 417.84,328.518 420.84,325.518"/>
<polyline fill="none" stroke="#ff0000" stroke-width="0.5" stroke-linecap="square" stroke-linejoin="miter" points="426.42,318.942 429.42,321.942 426.42,324.942 423.42,321.942 426.42,318.942"/>
<polyline fill="none" stroke="#ff0000" stroke-width="0.5" stroke-linecap="square" stroke-linejoin="miter" points="432,311.713 435,314.713 432,317.713 429,314.713 432,311.713"/>
<polyline fill="none" stroke="#ff0000" stroke-width="0.5" stroke-linecap="square" stroke-linejoin="miter" points="437.58,303.78 440.58,306.78 437.58,309.78 434.58,306.78 437.58,303.78"/>
<polyline fill="none" stroke="#ff0000" stroke-width="0.5" stroke-linecap="square" stroke-linejoin="miter" points="443.16,295.086 446.16,298.086 443.16,301.086 440.16,298.086 443.16,295.086"/>
<polyline fill="none" stroke="#ff0000" stroke-width="0.5" stroke-linecap="square" stroke-linejoin="miter" points="448.74,285.572 451.74,288.572 448.74,291.572 445.74,288.572 448.74,285.572"/>
<polyline fill="none" stroke="#ff0000" stroke-width="0.5" stroke-linecap="square" stroke-linejoin="miter" points="454.32,275.172 457.32,278.172 454.32,281.172 451.32,278.172 454.32,275.172"/>
<polyline fill="none" stroke="#ff0000" stroke-width="0.5" stroke-linecap="square" stroke-linejoin="miter" points="459.9,263.821 462.9,266.821 459.9,269.821 456.9,266.821 459.9,263.821"/>
<polyline fill="none" stroke="#ff0000" stroke-width="0.5" stroke-linecap="square" stroke-linejoin="miter" points="465.48,251.447 468.48,254.447 465.48,257.447 462.48,254.447 465.48,251.447"/>
<polyline fill="none" stroke="#ff0000" stroke-width="0.5" stroke-linecap="square" stroke-linejoin="miter" points="471.06,237.973 474.06,240.973 471.06,243.973 468.06,240.973 471.06,237.973"/>
<polyline fill="none" stroke="#ff0000" stroke-width="0.5" stroke-linecap="square" stroke-linejoin="miter" points="476.64,223.32 479.64,226.32 476.64,229.32 473.64,226.32 476.64,223.32"/>
<polyline fill="none" stroke="#ff0000" stroke-width="0.5" stroke-linecap="square" stroke-linejoin="miter" points="482.22,207.403 485.22,210.403 482.22,213.403 479.22,210.403 482.22,207.403"/>
<polyline fill="none" stroke="#ff0000" stroke-width="0.5" stroke-linecap="square" stroke-linejoin="miter" points="487.8,190.132 490.8,193.132 487.8,196.132 484.8,193.132 487.8,190.132"/>
<polyline fill="none" stroke="#ff0000" stroke-width="0.5" stroke-linecap="square" stroke-linejoin="miter" points="493.38,171.413 496.38,174.413 493.38,177.413 490.38,174.413 493.38,171.413"/>
<polyline fill="none" stroke="#ff0000" stroke-width="0.5" stroke-linecap="square" stroke-linejoin="miter" points="498.96,151.145 501.96,154.145 498.96,157.145 495.96,154.145 498.96,151.145"/>
<polyline fill="none" stroke="#ff0000" stroke-width="0.5" stroke-linecap="square" stroke-linejoin="miter" points="504.54,129.224 507.54,132.224 504.54,135.224 501.54,132.224 504.54,129.224"/>
<polyline fill="none" stroke="#ff0000" stroke-width="0.5" stroke-linecap="square" stroke-linejoin="miter" points="510.12,105.538 513.12,108.538 510.12,111.538 507.12,108.538 510.12,105.538"/>
<polyline fill="none" stroke="#ff0000" stroke-width="0.5" stroke-linecap="square" stroke-linejoin="miter" points="515.7,79.9712 518.7,82.9712 515.7,85.9712 512.7,82.9712 515.7,79.9712"/>
<polyline fill="none" stroke="#ff0000" stroke-width="0.5" stroke-linecap="square" stroke-linejoin="miter" points="521.28,52.4002 524.28,55.4002 521.28,58.4002 518.28,55.4002 521.28,52.4002"/>
</g>
</g>
</svg>
